HIERARCHY
ROOT root
{
  OFFSET 0 93.2929 0
  CHANNELS 6 Xposition Yposition Zposition Zrotation Xrotation Yrotation
  JOINT torso_1
  {
    OFFSET 0 5.07867 -1.15138
    CHANNELS 6 Xposition Yposition Zposition Zrotation Xrotation Yrotation
    JOINT torso_2
    {
      OFFSET 0 5.61661 1.07143
      CHANNELS 6 Xposition Yposition Zposition Zrotation Xrotation Yrotation
      JOINT torso_3
      {
        OFFSET -1.02604e-17 5.98978 0.11501
        CHANNELS 6 Xposition Yposition Zposition Zrotation Xrotation Yrotation
        JOINT torso_4
        {
          OFFSET -1.10457e-17 6.50583 -0.443523
          CHANNELS 6 Xposition Yposition Zposition Zrotation Xrotation Yrotation
          JOINT torso_5
          {
            OFFSET -1.97295e-17 7.60548 -1.50593
            CHANNELS 6 Xposition Yposition Zposition Zrotation Xrotation Yrotation
            JOINT torso_6
            {
              OFFSET -2.53307e-17 9.49737 -0.914492
              CHANNELS 6 Xposition Yposition Zposition Zrotation Xrotation Yrotation
              JOINT torso_7
              {
                OFFSET -2.90401e-17 10.5513 1.57691
                CHANNELS 6 Xposition Yposition Zposition Zrotation Xrotation Yrotation
                JOINT neck_1
                {
                  OFFSET -1.29193e-17 4.78644 0.715339
                  CHANNELS 6 Xposition Yposition Zposition Zrotation Xrotation Yrotation
                  JOINT neck_2
                  {
                    OFFSET -1.8116e-17 4.82109 0.421791
                    CHANNELS 6 Xposition Yposition Zposition Zrotation Xrotation Yrotation
                    JOINT head
                    {
                      OFFSET -2.00958e-17 4.83041 0.765062
                      CHANNELS 6 Xposition Yposition Zposition Zrotation Xrotation Yrotation
                      End Site
                      {
                        OFFSET 0 0.1 0
                      }
                    }
                  }
                }
                JOINT l_shoulder
                {
                  OFFSET 1.23299 -7.60731 7.53374
                  CHANNELS 6 Xposition Yposition Zposition Zrotation Xrotation Yrotation
                  JOINT l_up_arm
                  {
                    OFFSET 12.9547 3.2495 -3.26872
                    CHANNELS 6 Xposition Yposition Zposition Zrotation Xrotation Yrotation
                    JOINT l_low_arm
                    {
                      OFFSET 29.2081 0.0598081 0.137039
                      CHANNELS 6 Xposition Yposition Zposition Zrotation Xrotation Yrotation
                      JOINT l_hand
                      {
                        OFFSET 24.234 0.0496219 0.113701
                        CHANNELS 6 Xposition Yposition Zposition Zrotation Xrotation Yrotation
                        End Site
                        {
                          OFFSET 0.1 0 0
                        }
                      }
                    }
                  }
                }
                JOINT r_shoulder
                {
                  OFFSET -1.23299 -7.60729 7.53365
                  CHANNELS 6 Xposition Yposition Zposition Zrotation Xrotation Yrotation
                  JOINT r_up_arm
                  {
                    OFFSET -12.9547 3.2495 -3.26872
                    CHANNELS 6 Xposition Yposition Zposition Zrotation Xrotation Yrotation
                    JOINT r_low_arm
                    {
                      OFFSET -29.2081 0.0598081 0.137039
                      CHANNELS 6 Xposition Yposition Zposition Zrotation Xrotation Yrotation
                      JOINT r_hand
                      {
                        OFFSET -24.234 0.0496218 0.113702
                        CHANNELS 6 Xposition Yposition Zposition Zrotation Xrotation Yrotation
                        End Site
                        {
                          OFFSET -0.1 0 0
                        }
                      }
                    }
                  }
                }
              }
            }
          }
        }
      }
    }
  }
  JOINT l_up_leg
  {
    OFFSET 9.23673 -4.20556 2.0327
    CHANNELS 6 Xposition Yposition Zposition Zrotation Xrotation Yrotation
    JOINT l_low_leg
    {
      OFFSET -0.852353 -38.7721 -0.655187
      CHANNELS 6 Xposition Yposition Zposition Zrotation Xrotation Yrotation
      JOINT l_foot
      {
        OFFSET -2.32622 -40.4017 -6.04875
        CHANNELS 6 Xposition Yposition Zposition Zrotation Xrotation Yrotation
        JOINT l_toes
        {
          OFFSET 0.779096 -9.8844 12.4959
          CHANNELS 6 Xposition Yposition Zposition Zrotation Xrotation Yrotation
          End Site
          {
            OFFSET 0 0 0.1
          }
        }
      }
    }
  }
  JOINT r_up_leg
  {
    OFFSET -9.23673 -4.20556 2.0327
    CHANNELS 6 Xposition Yposition Zposition Zrotation Xrotation Yrotation
    JOINT r_low_leg
    {
      OFFSET 0.852353 -38.7721 -0.655187
      CHANNELS 6 Xposition Yposition Zposition Zrotation Xrotation Yrotation
      JOINT r_foot
      {
        OFFSET 2.32622 -40.4017 -6.04875
        CHANNELS 6 Xposition Yposition Zposition Zrotation Xrotation Yrotation
        JOINT r_toes
        {
          OFFSET -0.779096 -9.8844 12.4959
          CHANNELS 6 Xposition Yposition Zposition Zrotation Xrotation Yrotation
          End Site
          {
            OFFSET 0 0 0.1
          }
        }
      }
    }
  }
}
MOTION
Frames: 5
Frame Time: 0.016667
0 93.2929 0 -0 0 -0 0 5.07867 -1.15138 -0 0 -0 0 5.61661 1.07143 -0 0 -0 -1.02604e-17 5.98978 0.11501 -0 0 -0 -1.10457e-17 6.50583 -0.443523 -0 0 -0 -1.97295e-17 7.60548 -1.50593 -0 0 -0 -2.53307e-17 9.49737 -0.914492 -0 0 -0 -2.90401e-17 10.5513 1.57691 -0 0 -0 -1.29193e-17 4.78644 0.715339 -0 0 -0 -1.8116e-17 4.82109 0.421791 -0 0 -0 -2.00958e-17 4.83041 0.765062 -0 0 -0 1.23299 -7.60731 7.53374 -0 0 -0 12.9547 3.2495 -3.26872 -0 0 -0 29.2081 0.0598081 0.137039 -0 0 -0 24.234 0.0496219 0.113701 -0 0 -0 -1.23299 -7.60729 7.53365 -0 0 -0 -12.9547 3.2495 -3.26872 -0 0 -0 -29.2081 0.0598081 0.137039 -0 0 -0 -24.234 0.0496218 0.113702 -0 0 -0 9.23673 -4.20556 2.0327 -0 0 -0 -0.852353 -38.7721 -0.655187 -0 0 -0 -2.32622 -40.4017 -6.04875 -0 0 -0 0.779096 -9.8844 12.4959 -0 0 -0 -9.23673 -4.20556 2.0327 -0 0 -0 0.852353 -38.7721 -0.655187 -0 0 -0 2.32622 -40.4017 -6.04875 -0 0 -0 -0.779096 -9.8844 12.4959 -0 0 -0 
-8.28311 92.8542 69.4286 1.65966 -0.461906 0.667831 0 5.07867 -1.15138 -1.49001 1.11368 0.0260343 0 5.61661 1.07143 -1.05025 1.15106 -0.241395 -1.02604e-17 5.98978 0.11501 -0.708296 1.35412 -0.141537 -1.10457e-17 6.50583 -0.443523 -0.398473 1.34239 -0.12842 -1.97295e-17 7.60548 -1.50593 -0.0509493 0.874563 -0.120213 -2.53307e-17 9.49737 -0.914492 0.320415 0.546317 -0.418308 -2.90401e-17 10.5513 1.57691 -0.0433553 0.88819 0.0339721 -1.29193e-17 4.78644 0.715339 0.291044 -0.345846 -0.523801 -1.8116e-17 4.82109 0.421791 -0.48928 -2.51303 -0.402565 -2.00958e-17 4.83041 0.765062 -1.63921 -1.1586 2.44064 1.23299 -7.60731 7.53374 -0.237492 3.44393 -1.58029 12.9547 3.2495 -3.26872 -81.4409 18.2494 -5.12591 29.2081 0.0598081 0.137039 1.75658 -0.121384 -8.49492 24.234 0.0496219 0.113701 1.07755 -15.5174 -4.24733 -1.23299 -7.60729 7.53365 3.52761 4.55565 1.7083 -12.9547 3.2495 -3.26872 77.5686 12.1289 1.85143 -29.2081 0.0598081 0.137039 -1.45021 -0.0811447 7.00474 -24.234 0.0496218 0.113702 1.13308 -16.5543 4.78631 9.23673 -4.20556 2.0327 -1.86836 0.272086 -10.5684 -0.852353 -38.7721 -0.655187 0.25499 -0.950849 0.0187141 -2.32622 -40.4017 -6.04875 0.217489 -0.36381 15.0917 0.779096 -9.8844 12.4959 7.55407e-17 -7.93555e-16 1.08399e-17 -9.23673 -4.20556 2.0327 -2.51769 -2.84712 20.7843 0.852353 -38.7721 -0.655187 0.568415 2.12277 0.0265246 2.32622 -40.4017 -6.04875 -2.21154 -1.79626 -15.0618 -0.779096 -9.8844 12.4959 -5.96354e-16 -5.59082e-16 -1.27471e-14 
-8.29915 92.8537 69.4253 1.67101 -0.451249 0.698323 0 5.07867 -1.15138 -1.49083 1.12671 0.026099 0 5.61661 1.07143 -1.05174 1.1603 -0.241485 -1.02604e-17 5.98978 0.11501 -0.71038 1.35998 -0.141883 -1.10457e-17 6.50583 -0.443523 -0.401112 1.34304 -0.128971 -1.97295e-17 7.60548 -1.50593 -0.0542772 0.872318 -0.120317 -2.53307e-17 9.49737 -0.914492 0.316564 0.541859 -0.417134 -2.90401e-17 10.5513 1.57691 -0.0430993 0.888988 0.0334438 -1.29193e-17 4.78644 0.715339 0.290183 -0.32926 -0.503479 -1.8116e-17 4.82109 0.421791 -0.504345 -2.50742 -0.39368 -2.00958e-17 4.83041 0.765062 -1.66161 -1.16426 2.44116 1.23299 -7.60731 7.53374 -0.23881 3.45192 -1.592 12.9547 3.2495 -3.26872 -81.4413 18.2994 -5.14923 29.2081 0.0598081 0.137039 1.75679 -0.121414 -8.49592 24.234 0.0496219 0.113701 1.06893 -15.5608 -4.25576 -1.23299 -7.60729 7.53365 3.49902 4.55383 1.70983 -12.9547 3.2495 -3.26872 77.5722 12.1914 1.85955 -29.2081 0.0598081 0.137039 -1.45496 -0.0817043 7.02778 -24.234 0.0496218 0.113702 1.14295 -16.5505 4.79463 9.23673 -4.20556 2.0327 -1.86477 0.255761 -10.621 -0.852353 -38.7721 -0.655187 0.255537 -0.952886 0.0187588 -2.32622 -40.4017 -6.04875 0.185147 -0.364301 15.0946 0.779096 -9.8844 12.4959 4.22417e-16 -7.82715e-16 2.88531e-33 -9.23673 -4.20556 2.0327 -2.51652 -2.85333 20.7581 0.852353 -38.7721 -0.655187 0.568283 2.12228 0.0265209 2.32622 -40.4017 -6.04875 -2.23972 -1.79935 -15.0606 -0.779096 -9.8844 12.4959 -5.96354e-16 -5.59082e-16 -1.27471e-14 
-8.31508 92.8535 69.4223 1.68143 -0.438074 0.730595 0 5.07867 -1.15138 -1.49137 1.13678 0.0253653 0 5.61661 1.07143 -1.05272 1.16789 -0.242232 -1.02604e-17 5.98978 0.11501 -0.711775 1.36547 -0.142789 -1.10457e-17 6.50583 -0.443523 -0.402826 1.34561 -0.129999 -1.97295e-17 7.60548 -1.50593 -0.0565851 0.873418 -0.121068 -2.53307e-17 9.49737 -0.914492 0.313687 0.541649 -0.417021 -2.90401e-17 10.5513 1.57691 -0.0428507 0.889279 0.0329406 -1.29193e-17 4.78644 0.715339 0.290555 -0.313416 -0.48652 -1.8116e-17 4.82109 0.421791 -0.509848 -2.50312 -0.386077 -2.00958e-17 4.83041 0.765062 -1.67567 -1.17065 2.44643 1.23299 -7.60731 7.53374 -0.241541 3.45733 -1.60134 12.9547 3.2495 -3.26872 -81.4465 18.3522 -5.1733 29.2081 0.0598081 0.137039 1.75843 -0.121651 -8.50393 24.234 0.0496219 0.113701 1.06022 -15.6096 -4.26307 -1.23299 -7.60729 7.53365 3.46986 4.54957 1.71005 -12.9547 3.2495 -3.26872 77.5738 12.2641 1.86836 -29.2081 0.0598081 0.137039 -1.46113 -0.0824343 7.05773 -24.234 0.0496218 0.113702 1.15588 -16.5611 4.8014 9.23673 -4.20556 2.0327 -1.86043 0.233157 -10.6746 -0.852353 -38.7721 -0.655187 0.254178 -0.947823 0.0186479 -2.32622 -40.4017 -6.04875 0.154289 -0.3669 15.0978 0.779096 -9.8844 12.4959 3.3081e-16 -7.85577e-16 2.86275e-18 -9.23673 -4.20556 2.0327 -2.51479 -2.86853 20.7429 0.852353 -38.7721 -0.655187 0.571503 2.13431 0.0266112 2.32622 -40.4017 -6.04875 -2.26291 -1.80591 -15.0603 -0.779096 -9.8844 12.4959 -5.96354e-16 -5.59082e-16 -1.27471e-14 
-8.32944 92.8546 69.4199 1.69769 -0.432671 0.780819 0 5.07867 -1.15138 -1.49414 1.14426 0.023644 0 5.61661 1.07143 -1.05554 1.17419 -0.244043 -1.02604e-17 5.98978 0.11501 -0.714583 1.37123 -0.144821 -1.10457e-17 6.50583 -0.443523 -0.405504 1.35127 -0.132106 -1.97295e-17 7.60548 -1.50593 -0.0597263 0.879203 -0.122778 -2.53307e-17 9.49737 -0.914492 0.310012 0.547424 -0.417651 -2.90401e-17 10.5513 1.57691 -0.0427965 0.889207 0.0325465 -1.29193e-17 4.78644 0.715339 0.287544 -0.296502 -0.488743 -1.8116e-17 4.82109 0.421791 -0.517545 -2.49808 -0.38736 -2.00958e-17 4.83041 0.765062 -1.67384 -1.17517 2.45533 1.23299 -7.60731 7.53374 -0.247945 3.4593 -1.60975 12.9547 3.2495 -3.26872 -81.4454 18.4081 -5.20761 29.2081 0.0598081 0.137039 1.76052 -0.121952 -8.5141 24.234 0.0496219 0.113701 1.05462 -15.6555 -4.26109 -1.23299 -7.60729 7.53365 3.43932 4.54267 1.71213 -12.9547 3.2495 -3.26872 77.5732 12.343 1.87477 -29.2081 0.0598081 0.137039 -1.46749 -0.08319 7.08859 -24.234 0.0496218 0.113702 1.18475 -16.5991 4.81014 9.23673 -4.20556 2.0327 -1.8638 0.212034 -10.7381 -0.852353 -38.7721 -0.655187 0.250613 -0.934538 0.0183574 -2.32622 -40.4017 -6.04875 0.120143 -0.360212 15.1013 0.779096 -9.8844 12.4959 2.48481e-17 -7.95139e-16 1.2424e-17 -9.23673 -4.20556 2.0327 -2.52277 -2.87878 20.7121 0.852353 -38.7721 -0.655187 0.577667 2.15733 0.0267823 2.32622 -40.4017 -6.04875 -2.2802 -1.81556 -15.0594 -0.779096 -9.8844 12.4959 -5.96354e-16 -5.59082e-16 -1.27471e-14 
